<svg height="100" viewBox="12.25390625 29.36328125 152.4921875 41.2734375" fill="none" xmlns="http://www.w3.org/2000/svg">
<path d="M24.8351,68.8131l-4.175,-7.232l6.127,-10.584l3.894,6.745l22.986,-0.013l-6.523,11.184l-22.309,-0.1z" fill="#FFAD64"/>
<path d="M57.7713,50.5484l-4.175,7.232l-12.23,-0.015l3.894,-6.744l-11.503,-19.9l12.946,0.056l11.068,19.371z" fill="#ADD4D3"/>
<path d="M25.4787,31.0826l8.351,0l6.102,10.599l-7.788,-0.001l-11.482,19.913l-6.424,-11.24l11.241,-19.271z" fill="#FB8351"/>
<path fill-rule="evenodd" clip-rule="evenodd" d="M34.8472,29.4081l-0.025,-0.043h-10.33l-12.238,20.979l8.4,14.699l0.011,-0.017l3.176,5.5l24.288,0.109l8.529,-14.625l-0.057,0l3.151,-5.457l-12.05,-21.089l-12.855,-0.056zm7.991,13.991l0.065,0l-6.073,-10.547l8.873,0.039l10.087,17.653l-3.157,5.468l-8.274,0.005l2.885,-4.997l-4.406,-7.621zm-10.095,-10.599l4.141,7.163l-5.733,0l-9.815,17.021l-0.67,1.157l-4.445,-7.779l10.244,-17.562l6.278,0zm-3.981,18.183l4.373,-7.585l5.735,0.001l4.406,7.622l-2.885,4.998l-8.719,0.004l-2.91,-5.04zm-6.115,10.605l1.663,-2.885l2.475,-4.274l2.904,5.031l8.717,-0.004l-0.014,0.024l12.257,0.014l-4.489,7.697l-20.331,-0.091l-3.182,-5.512z" fill="#333237"/>
<path d="M69.7569,64.6589v-8.042h-2.972v-0.903h7.083v0.903h-2.972v8.042h-1.139z" fill="#333237"/>
<path d="M77.0326,64.7978c-1.176,0,-2.056,-0.282,-2.639,-0.847c-0.583,-0.565,-0.875,-1.435,-0.875,-2.611c0,-1.056,0.25,-1.885,0.75,-2.486c0.509,-0.612,1.31,-0.917,2.403,-0.917c0.648,0,1.18,0.12,1.597,0.361c0.426,0.231,0.741,0.556,0.945,0.972c0.213,0.408,0.319,0.871,0.319,1.389v1.236h-4.875c0.037,0.5,0.144,0.894,0.319,1.181c0.186,0.287,0.459,0.495,0.82,0.625c0.37,0.12,0.856,0.18,1.458,0.18c0.676,0,1.297,-0.115,1.861,-0.347v0.889c-0.287,0.12,-0.611,0.213,-0.972,0.278c-0.352,0.065,-0.722,0.097,-1.111,0.097zm-2.375,-3.722h3.861v-0.542c0,-0.537,-0.143,-0.949,-0.431,-1.236c-0.277,-0.296,-0.74,-0.444,-1.388,-0.444c-0.787,0,-1.324,0.185,-1.612,0.555c-0.287,0.37,-0.43,0.926,-0.43,1.667z" fill="#333237"/>
<path d="M84.3132,64.7978c-1.148,0,-2,-0.296,-2.555,-0.889c-0.556,-0.602,-0.834,-1.449,-0.834,-2.542c0,-1.157,0.315,-2.018,0.945,-2.583c0.629,-0.565,1.476,-0.847,2.541,-0.847c0.436,0,0.797,0.032,1.084,0.097c0.287,0.056,0.564,0.148,0.833,0.278v0.903c-0.5,-0.241,-1.069,-0.361,-1.708,-0.361c-0.815,0,-1.445,0.194,-1.889,0.583c-0.445,0.38,-0.667,1.023,-0.667,1.93c0,0.871,0.195,1.51,0.583,1.917c0.389,0.398,1.033,0.597,1.931,0.597c0.639,0,1.227,-0.12,1.764,-0.361v0.917c-0.287,0.12,-0.597,0.208,-0.931,0.264c-0.324,0.065,-0.689,0.097,-1.097,0.097z" fill="#333237"/>
<path d="M87.6176,64.6589v-9.361h1.139v3.486c0.306,-0.25,0.662,-0.454,1.069,-0.611c0.417,-0.158,0.899,-0.236,1.445,-0.236c0.796,0,1.393,0.194,1.792,0.583c0.398,0.389,0.597,1,0.597,1.833v4.306h-1.139v-4.264c0,-0.574,-0.13,-0.972,-0.389,-1.194c-0.25,-0.232,-0.667,-0.348,-1.25,-0.348c-0.37,0,-0.755,0.084,-1.153,0.25c-0.389,0.158,-0.713,0.366,-0.972,0.625v4.931h-1.139z" fill="#333237"/>
<path d="M98.2017,64.7979c-0.926,0,-1.667,-0.204,-2.222,-0.611c-0.556,-0.408,-0.834,-0.954,-0.834,-1.639c0,-0.63,0.195,-1.171,0.584,-1.625c0.389,-0.454,0.921,-0.857,1.597,-1.208c-0.361,-0.361,-0.667,-0.699,-0.917,-1.014c-0.25,-0.315,-0.375,-0.695,-0.375,-1.139c0,-0.556,0.19,-1.023,0.57,-1.403c0.389,-0.389,0.935,-0.583,1.639,-0.583c0.685,0,1.217,0.18,1.597,0.541c0.379,0.361,0.569,0.843,0.569,1.445c0,0.5,-0.134,0.921,-0.403,1.264c-0.268,0.342,-0.652,0.69,-1.152,1.041l2.305,2.348c0.157,-0.343,0.236,-0.778,0.236,-1.306v-0.194h0.903v0.194c0,0.361,-0.042,0.713,-0.125,1.056c-0.083,0.342,-0.204,0.639,-0.361,0.889l1.25,1.263l-0.695,0.625l-1.111,-1.097c-0.324,0.398,-0.745,0.69,-1.263,0.875c-0.519,0.185,-1.116,0.278,-1.792,0.278zm-0.056,-5.486c0.436,-0.269,0.764,-0.523,0.987,-0.764c0.222,-0.25,0.333,-0.565,0.333,-0.944c0,-0.352,-0.097,-0.63,-0.292,-0.834c-0.185,-0.213,-0.495,-0.319,-0.93,-0.319c-0.445,0,-0.769,0.111,-0.973,0.333c-0.194,0.222,-0.291,0.495,-0.291,0.82c0,0.296,0.102,0.569,0.305,0.819c0.213,0.25,0.5,0.546,0.861,0.889zm0.056,4.667c0.537,0,0.995,-0.079,1.375,-0.236c0.388,-0.167,0.717,-0.412,0.986,-0.737l-2.542,-2.597c-0.602,0.278,-1.051,0.579,-1.347,0.903c-0.287,0.315,-0.431,0.718,-0.431,1.208c0,0.482,0.185,0.848,0.556,1.098c0.37,0.24,0.838,0.361,1.403,0.361z" fill="#FB8351"/>
<path d="M67.2334,49.2219v-12.385h3.615v9.616h5.577v2.769h-9.192z" fill="#FB8351"/>
<path d="M82.2419,49.4142c-1.82,0,-3.167,-0.404,-4.038,-1.212c-0.859,-0.807,-1.289,-1.987,-1.289,-3.538c0,-1.538,0.436,-2.712,1.308,-3.519c0.872,-0.821,2.211,-1.231,4.019,-1.231c1.821,0,3.167,0.41,4.038,1.231c0.885,0.807,1.327,1.98,1.327,3.519c0,1.551,-0.435,2.731,-1.307,3.538c-0.872,0.808,-2.225,1.212,-4.058,1.212zm0,-2.635c0.59,0,1.013,-0.166,1.269,-0.5c0.269,-0.333,0.404,-0.872,0.404,-1.615c0,-0.731,-0.135,-1.263,-0.404,-1.596c-0.256,-0.346,-0.679,-0.52,-1.269,-0.52c-0.577,0,-0.994,0.174,-1.25,0.52c-0.256,0.333,-0.385,0.865,-0.385,1.596c0,0.743,0.129,1.282,0.385,1.615c0.256,0.334,0.673,0.5,1.25,0.5z" fill="#FB8351"/>
<path d="M92.9621,52.6065c-0.449,0,-0.936,-0.019,-1.462,-0.058c-0.525,-0.025,-1.025,-0.077,-1.499,-0.153c-0.462,-0.077,-0.847,-0.167,-1.154,-0.27v-2.307c0.346,0.115,0.743,0.211,1.192,0.288c0.462,0.077,0.929,0.135,1.404,0.173c0.474,0.039,0.91,0.058,1.308,0.058c0.679,0,1.211,-0.039,1.596,-0.116c0.397,-0.064,0.596,-0.185,0.596,-0.365c0,-0.154,-0.064,-0.256,-0.193,-0.308c-0.128,-0.038,-0.371,-0.057,-0.73,-0.057h-2.404c-0.936,0,-1.66,-0.148,-2.173,-0.443c-0.5,-0.307,-0.75,-0.762,-0.75,-1.365c0,-0.846,0.468,-1.436,1.404,-1.769c-0.526,-0.27,-0.911,-0.609,-1.154,-1.02c-0.244,-0.41,-0.366,-0.929,-0.366,-1.557c0,-1.18,0.398,-2.045,1.193,-2.596c0.807,-0.552,1.968,-0.827,3.48,-0.827c0.321,0,0.68,0.025,1.077,0.077c0.398,0.038,0.686,0.077,0.866,0.115h3.577l-0.077,2.192h-1.212c0.231,0.295,0.346,0.654,0.346,1.077c0,0.936,-0.275,1.68,-0.827,2.231c-0.538,0.538,-1.391,0.808,-2.557,0.808c-0.167,0,-0.346,-0.007,-0.539,-0.02c-0.192,-0.025,-0.372,-0.044,-0.538,-0.057c-0.282,0.025,-0.526,0.077,-0.731,0.154c-0.205,0.077,-0.308,0.205,-0.308,0.384c0,0.128,0.058,0.218,0.173,0.269c0.116,0.039,0.276,0.058,0.481,0.058h2.096c0.936,0,1.673,0.218,2.212,0.654c0.538,0.436,0.808,1.077,0.808,1.923c0,0.898,-0.417,1.59,-1.25,2.077c-0.834,0.5,-2.129,0.75,-3.885,0.75zm0.308,-8.173c0.564,0,0.955,-0.096,1.173,-0.289c0.218,-0.192,0.327,-0.512,0.327,-0.961c0,-0.449,-0.109,-0.776,-0.327,-0.981c-0.218,-0.205,-0.609,-0.308,-1.173,-0.308c-0.526,0,-0.911,0.103,-1.154,0.308c-0.231,0.192,-0.346,0.519,-0.346,0.981c0,0.436,0.109,0.756,0.327,0.961c0.23,0.193,0.621,0.289,1.173,0.289z" fill="#FB8351"/>
<path d="M104.666,49.4142c-1.821,0,-3.167,-0.404,-4.039,-1.212c-0.859,-0.807,-1.288,-1.987,-1.288,-3.538c-0.001,-1.538,0.435,-2.712,1.307,-3.519c0.872,-0.821,2.212,-1.231,4.02,-1.231c1.82,0,3.166,0.41,4.038,1.231c0.885,0.807,1.327,1.98,1.327,3.519c0,1.551,-0.436,2.731,-1.308,3.538c-0.872,0.808,-2.224,1.212,-4.057,1.212zm0,-2.635c0.589,0,1.012,-0.166,1.269,-0.5c0.269,-0.333,0.404,-0.872,0.404,-1.615c0,-0.731,-0.135,-1.263,-0.404,-1.596c-0.257,-0.346,-0.68,-0.52,-1.269,-0.52c-0.577,0,-0.994,0.174,-1.251,0.52c-0.256,0.333,-0.384,0.865,-0.384,1.596c0,0.743,0.128,1.282,0.384,1.615c0.257,0.334,0.674,0.5,1.251,0.5z" fill="#FB8351"/>
<path d="M111.62,38.8948v-2.615h3.904v2.615h-3.904zm0.288,10.327v-6.481h-1.326l0.307,-2.634h4.635v9.115h-3.616z" fill="#333237"/>
<path d="M117.258,53.3757v-13.269h3.135l0.173,0.73c0.371,-0.294,0.775,-0.519,1.211,-0.673c0.449,-0.166,0.968,-0.25,1.558,-0.25c1.359,0,2.404,0.346,3.135,1.039c0.743,0.679,1.115,1.84,1.115,3.481c0,1.628,-0.391,2.865,-1.173,3.711c-0.782,0.846,-1.859,1.269,-3.231,1.269c-0.91,0,-1.679,-0.173,-2.308,-0.519v4.481h-3.615zm5,-6.596c0.526,0,0.93,-0.186,1.212,-0.558c0.282,-0.372,0.423,-0.949,0.423,-1.731c0,-0.756,-0.135,-1.269,-0.404,-1.538c-0.257,-0.269,-0.654,-0.404,-1.193,-0.404c-0.538,0,-1.012,0.179,-1.423,0.538v3.231c0.206,0.154,0.411,0.27,0.616,0.346c0.205,0.077,0.461,0.116,0.769,0.116z" fill="#333237"/>
<path d="M132.403,49.4141c-0.782,0,-1.519,-0.058,-2.211,-0.173c-0.68,-0.103,-1.218,-0.237,-1.616,-0.404v-2.596c0.449,0.205,0.981,0.365,1.596,0.481c0.629,0.115,1.161,0.173,1.596,0.173c0.462,0,0.808,-0.013,1.039,-0.039c0.244,-0.025,0.365,-0.134,0.365,-0.327c0,-0.217,-0.211,-0.384,-0.634,-0.5c-0.423,-0.115,-0.955,-0.282,-1.596,-0.5c-0.834,-0.294,-1.456,-0.641,-1.866,-1.038c-0.41,-0.397,-0.615,-0.974,-0.615,-1.731c0,-0.91,0.359,-1.609,1.077,-2.096c0.718,-0.5,1.846,-0.75,3.384,-0.75c0.59,0,1.199,0.045,1.827,0.135c0.628,0.089,1.122,0.192,1.481,0.307v2.539c-0.385,-0.167,-0.808,-0.289,-1.269,-0.366c-0.449,-0.077,-0.859,-0.115,-1.231,-0.115c-0.41,0,-0.776,0.019,-1.096,0.058c-0.321,0.038,-0.481,0.147,-0.481,0.327c0,0.205,0.18,0.352,0.539,0.442c0.371,0.09,0.865,0.231,1.48,0.423c0.693,0.205,1.231,0.43,1.616,0.673c0.397,0.244,0.673,0.539,0.827,0.885c0.166,0.346,0.25,0.775,0.25,1.288c0,0.923,-0.379,1.641,-1.135,2.154c-0.744,0.5,-1.853,0.75,-3.327,0.75z" fill="#333237"/>
<path d="M141.524,49.4141c-1.064,0,-1.897,-0.301,-2.5,-0.904c-0.602,-0.602,-0.903,-1.487,-0.903,-2.654v-5.75h3.615v5.462c0,0.795,0.404,1.192,1.211,1.192c0.295,0,0.584,-0.064,0.866,-0.192c0.282,-0.128,0.506,-0.289,0.673,-0.481v-5.981h3.615v9.116h-3.384l-0.096,-0.693c-0.359,0.257,-0.802,0.468,-1.327,0.635c-0.513,0.167,-1.103,0.25,-1.77,0.25z" fill="#333237"/>
<path d="M149.823,49.2218v-9.115h3.346l0.096,0.73c0.398,-0.269,0.84,-0.487,1.327,-0.653c0.5,-0.18,1.045,-0.27,1.635,-0.27c0.589,0,1.051,0.084,1.384,0.25c0.334,0.167,0.603,0.411,0.808,0.731c0.41,-0.295,0.872,-0.532,1.385,-0.711c0.525,-0.18,1.141,-0.27,1.846,-0.27c1.064,0,1.846,0.282,2.346,0.846c0.5,0.552,0.75,1.398,0.75,2.539v5.923h-3.558v-5.5c0,-0.41,-0.083,-0.699,-0.25,-0.865c-0.166,-0.18,-0.442,-0.27,-0.827,-0.27c-0.5,0,-0.91,0.18,-1.23,0.539c0.025,0.167,0.038,0.327,0.038,0.481c0,0.141,0,0.301,0,0.48v5.135h-3.346v-5.558c0,-0.371,-0.064,-0.641,-0.192,-0.807c-0.129,-0.18,-0.372,-0.27,-0.731,-0.27c-0.244,0,-0.481,0.065,-0.712,0.193c-0.231,0.128,-0.436,0.282,-0.615,0.461v5.981h-3.5z" fill="#333237"/>
<path d="M108.951,64.9125c-0.963,0,-1.764,-0.181,-2.403,-0.542c-0.629,-0.37,-1.101,-0.884,-1.416,-1.541c-0.315,-0.667,-0.472,-1.445,-0.472,-2.334c0,-0.972,0.148,-1.819,0.444,-2.541c0.296,-0.723,0.759,-1.278,1.389,-1.667c0.63,-0.398,1.444,-0.597,2.444,-0.597c0.519,0,0.986,0.037,1.403,0.111c0.426,0.074,0.824,0.176,1.195,0.305v1c-0.371,-0.138,-0.764,-0.245,-1.181,-0.319c-0.417,-0.083,-0.856,-0.125,-1.319,-0.125c-0.806,0,-1.445,0.153,-1.917,0.458c-0.472,0.306,-0.81,0.746,-1.014,1.32c-0.204,0.574,-0.306,1.259,-0.306,2.055c0,1.102,0.26,1.954,0.778,2.556c0.528,0.593,1.357,0.889,2.486,0.889c0.417,0,0.838,-0.033,1.264,-0.097c0.435,-0.065,0.838,-0.167,1.209,-0.306v1.014c-0.362,0.111,-0.755,0.199,-1.181,0.264c-0.417,0.065,-0.884,0.097,-1.403,0.097z" fill="#333237"/>
<path d="M116.211,64.9125c-1.148,0,-1.986,-0.292,-2.514,-0.875c-0.518,-0.593,-0.777,-1.444,-0.777,-2.556c0,-1.101,0.264,-1.949,0.791,-2.541c0.528,-0.593,1.362,-0.889,2.5,-0.889c1.139,0,1.973,0.296,2.5,0.889c0.528,0.592,0.792,1.44,0.792,2.541c0,1.112,-0.259,1.963,-0.778,2.556c-0.518,0.583,-1.356,0.875,-2.514,0.875zm0,-0.972c0.787,0,1.343,-0.195,1.667,-0.584c0.324,-0.398,0.486,-1.023,0.486,-1.875c0,-0.851,-0.166,-1.472,-0.5,-1.861c-0.324,-0.398,-0.875,-0.597,-1.653,-0.597c-0.777,0,-1.333,0.199,-1.666,0.597c-0.324,0.389,-0.486,1.01,-0.486,1.861c0,0.852,0.162,1.477,0.486,1.875c0.324,0.389,0.879,0.584,1.666,0.584z" fill="#333237"/>
<path d="M120.895,64.7736v-0.958h1.028v0.958h-1.028z" fill="#333237"/>
</svg>
